<?xml version="1.0" standalone="no"?>
<!DOCTYPE svg PUBLIC "-//W3C//DTD SVG 20010904//EN"
 "http://www.w3.org/TR/2001/REC-SVG-20010904/DTD/svg10.dtd">
<svg version="1.0" xmlns="http://www.w3.org/2000/svg"
 width="877.000000pt" height="700.000000pt" viewBox="0 0 877.000000 700.000000"
 preserveAspectRatio="xMidYMid meet">
<metadata>
Created by potrace 1.16, written by Peter Selinger 2001-2019
</metadata>
<g transform="translate(0.000000,700.000000) scale(0.100000,-0.100000)"
fill="#000000" stroke="none">
<path d="M409 6992 l-276 -2 -31 -93 c-81 -236 -107 -398 -99 -612 7 -214 47
-337 161 -509 115 -171 257 -302 631 -584 453 -340 616 -482 808 -702 313
-358 453 -623 642 -1210 96 -300 216 -512 370 -659 221 -209 468 -306 902
-352 54 -5 393 -14 753 -19 710 -9 820 -17 1112 -75 496 -100 889 -310 1238
-664 136 -136 194 -207 360 -436 252 -346 445 -569 632 -730 261 -226 480
-333 703 -342 137 -6 250 18 366 78 l79 41 1 107 c1 58 2 140 2 181 3 384 -15
6199 -19 6368 l-6 223 -4027 -3 c-2214 -2 -4150 -4 -4302 -6z"/>
</g>
</svg>
