<svg data-v-423bf9ae="" xmlns="http://www.w3.org/2000/svg" viewBox="0 0 408 90" class="iconLeft"><!----><!----><!----><g data-v-423bf9ae="" id="96777a4f-91d6-42d1-947b-c1165cd06437" fill="#000000" transform="matrix(5.681818469168412,0,0,5.681818469168412,137.27273227270257,-3.295455871698998)"><path d="M4.51 3.72C2.59 3.72 0.85 4.77 0.85 6.64C0.85 8.57 2.14 9.25 4.34 9.80C5.53 10.09 5.89 10.53 5.89 11.03C5.89 11.56 5.36 11.93 4.66 11.93C3.91 11.93 3.16 11.54 3.00 10.63L0.48 10.63C0.63 12.80 2.28 13.78 4.73 13.78C6.68 13.78 8.53 12.80 8.53 10.86C8.53 9.38 7.66 8.32 5.53 7.81C3.93 7.43 3.49 7.06 3.49 6.44C3.49 5.85 3.88 5.57 4.45 5.57C5.28 5.57 5.70 6.10 5.81 6.90L8.33 6.90C8.12 5.11 7.06 3.72 4.51 3.72ZM17.04 7.94C16.84 6.64 15.93 5.91 14.39 5.91C13.71 5.91 13.17 6.06 12.71 6.34L12.04 7.27L12.04 3.22L9.52 3.22L9.52 13.58L12.04 13.58L12.04 10.05C12.04 8.36 12.59 7.62 13.36 7.62C14.11 7.62 14.50 8.04 14.56 8.75C14.59 9.13 14.59 9.53 14.59 9.77L14.59 13.58L17.11 13.58L17.11 9.35C17.11 8.75 17.09 8.32 17.04 7.94ZM22.92 13.58L25.38 13.58C25.27 12.75 25.24 12.25 25.24 11.69L25.24 9.59C25.24 9.13 25.23 8.69 25.20 8.32C25.09 6.96 24.28 5.91 21.91 5.91C20.02 5.91 18.47 6.90 18.45 8.65L20.83 8.64C20.87 7.99 21.21 7.62 21.80 7.62C22.34 7.62 22.65 7.95 22.69 8.33C22.72 8.57 22.72 8.72 22.72 8.88L22.72 8.99L22.25 8.99C19.71 8.99 18.20 9.97 18.20 11.56C18.20 13.01 19.36 13.78 20.59 13.78C21.28 13.78 21.91 13.61 22.44 13.27L22.75 12.49ZM21.63 12.07C21.13 12.07 20.78 11.82 20.78 11.37C20.78 10.63 21.59 10.33 22.72 10.42L22.72 10.91C22.72 11.69 22.13 12.07 21.63 12.07ZM31.28 5.91C30.80 5.91 30.21 6.12 29.81 6.57L29.27 7.62L29.27 6.10L26.75 6.10L26.75 13.58L29.27 13.58L29.27 10.84C29.27 8.58 29.96 7.88 31.85 8.01L31.85 5.95C31.67 5.92 31.51 5.91 31.28 5.91ZM36.23 5.91C33.78 5.91 32.21 7.43 32.21 9.84C32.21 12.24 33.78 13.78 36.23 13.78C38.68 13.78 40.25 12.24 40.25 9.84C40.25 7.43 38.68 5.91 36.23 5.91ZM36.23 12.07C35.34 12.07 34.79 11.33 34.79 9.84C34.79 8.34 35.34 7.62 36.23 7.62C37.13 7.62 37.67 8.34 37.67 9.84C37.67 11.33 37.13 12.07 36.23 12.07ZM47.54 12.01L43.76 12.01L47.50 7.70L47.50 6.16L41.27 6.16L41.27 7.73L44.84 7.73L41.06 12.11L41.06 13.58L47.54 13.58Z"></path></g><defs data-v-423bf9ae=""><linearGradient data-v-423bf9ae="" gradientTransform="rotate(25)" id="a1b178cd-eb7e-4f14-8b4e-d7b5bdbe6b55" x1="0%" y1="0%" x2="100%" y2="0%"><stop data-v-423bf9ae="" offset="0%" style="stop-color: rgb(180, 55, 61); stop-opacity: 1;"></stop><stop data-v-423bf9ae="" offset="100%" style="stop-color: rgb(178, 58, 203); stop-opacity: 1;"></stop></linearGradient></defs><g data-v-423bf9ae="" id="cbc057c3-c87c-40cb-b22f-d0dab2e27050" transform="matrix(7.5,0,0,7.5,0,-15)" stroke="none" fill="url(#a1b178cd-eb7e-4f14-8b4e-d7b5bdbe6b55)"><path d="M7.969 2L6 13.844 5.969 14h2.063l1.969-11.844.031-.156H7.969zM5 3.813l-.531.344-4 2.5L0 6.938v2.126l.469.281 4 2.5.531.344V9.814L2.094 8.001 5 6.188V3.813zm6 0v2.375l2.906 1.813L11 9.814v2.375l.531-.344 4-2.5.469-.281V6.938l-.469-.281-4-2.5L11 3.813z"></path></g><!----></svg>